<?xml version="1.0" encoding="UTF-8"?><svg id="Layer_1" xmlns="http://www.w3.org/2000/svg" xmlns:xlink="http://www.w3.org/1999/xlink" viewBox="0 0 84.26 51.02"><defs><style>.cls-1{fill:none;}.cls-2{clip-path:url(#clippath-1);}.cls-3{fill:#fff;}.cls-4{clip-path:url(#clippath);}</style><clipPath id="clippath"><rect class="cls-1" x="0" y="0" width="83.97" height="45.68"/></clipPath><clipPath id="clippath-1"><rect class="cls-1" x="0" y="0" width="84.26" height="51.02"/></clipPath></defs><g class="cls-4"><path d="M16.82,39.19c-6.22-.31-12.19-3.47-15.8-9.01-.42-.33-1.46-.87-.82-1.6,3.07-.48,6.64.63,9.72-.27.75-.62.02-1.48-.28-2.12-2.29-2.15-5.32-4.1-6.11-7.17C2.16,11.94,8.99,7.4,6.35.28c.11-.42.64-.31.85-.09l1.74,3.3c3.64,3.54,6.3,8.65,4.32,13.9-.79,3.47-2.86,7.24-1.76,10.85,3.06.26,5.58.72,8.65.24,1.96-3.56,5.89-5.5,9.6-6.18,10.44.48,19.74-.11,30.08.48,3.79.8,3.06,7.02,7.72,5.93,4.89-2.24-1.56-8.15,3.85-10.07,4.42,1.02,11.44-2.14,12.39,4,.85,6.03-1.77,11.9-6.99,14.88-3.19,1.11-6.47,2.11-10.17,2.16-1.2,2.72-3.99,5.11-6.85,5.91-11.08-.18-22.17.07-33.57.1-3.9-.27-7.98-2.45-9.4-6.48"/></g><g class="cls-2"><path class="cls-3" d="M19.13,39.97c1.49-.93,3.81-.78,5.82-.75l39.59.1c.53-.1.52.75.3,1.06-1.71,1.56-3.54,3.43-5.87,4.23l-27.76-.02c-4.42-.6-10.14.58-12.07-4.63"/><path class="cls-3" d="M2.82,30.21c1.71-1.34,4.22-.04,6.56-.64l42.12.35c5.71-.65,12.55,1.15,17.96-.77,3.31-2.38-1.05-7.2,2.57-9.04,2.86-.59,6.03-.54,8.87.14,2.71,2.37,1.69,6.57.59,9.51-1.12,4.21-5.29,7.52-9.63,8.19-17.63.25-36.21-.15-54.16.09-5.9-.52-11.36-2.5-14.87-7.84"/><path class="cls-3" d="M22.7,27.99c5.51-7.72,17.15-3.11,25.09-4.35l11.71.29c1.57.87,2.91,2.69,3.74,3.97.2.85-.75.73-1.28.93l-11.61-.18c-8.65-.14-18.69.02-27.23-.22l-.42-.43"/><path d="M73.84,25.53c-.09-1.27.46-2.63,1.84-2.82l2.01-.18c1.04,1.07,1.11,3.19.35,4.33-1.39.93-3.81.57-4.2-1.33"/><path class="cls-3" d="M75.11,25.34c.33-.52.23-1.47,1.08-1.57.53-.1,1.16.23,1.25.87.09.74-.13,1.58-.98,1.67-.75.41-1.15-.55-1.36-.97"/><path class="cls-3" d="M4.91,18.1c-.14-4.75,3.29-8.08,3.27-12.83,1.68.45,2.18,2.46,3.32,3.54,1.31,3.72.82,8.04-.81,11.39.08,1.48-.58,2.95-.91,4.32-2.3-1.3-4.16-3.87-4.86-6.41"/><path d="M8.58,19.96c1-2.94,1.57-5.57.88-8.75-.53-.22-.51-.96-.51-1.38l.11-.1c2.29,2.25,1.7,6.15,1.12,9.2l.41.54c-.74-.01-1.39,1.14-2.01.5"/></g></svg>