<svg xmlns="http://www.w3.org/2000/svg" viewBox="0 0 283.46 176.46" class="logo">
  <g id="logo">
    <path style="fill:#00A0D6" class="logo-path" d="M257.94,57.87c-16,22.9-37.86,45.41-62.54,60a60.83,60.83,0,0,0,7.66-29.64,61.23,61.23,0,0,0-61.25-61.06h0c-49.88,0-96.7,40.07-126,80.91-2.86-3.22-5.58-6.53-8.19-9.86S2.44,91.58,0,88.27C32.81,43.72,86,0,141.73,0,184.65,0,226.22,25.65,257.94,57.87Zm18,20.32c-2.62-3.33-5.33-6.64-8.19-9.86-29.33,40.84-76.16,80.91-126,80.91h0a61,61,0,0,1-53.59-90.7c-24.68,14.63-46.59,37.15-62.55,60,31.73,32.22,73.3,57.89,116.21,57.88,55.79,0,108.93-43.73,141.73-88.28C281,84.88,278.52,81.53,275.91,78.19Zm-134.48-37a46.87,46.87,0,1,0,46.88,46.87A46.87,46.87,0,0,0,141.43,41.18Z"/>
  </g>
</svg>

